<?xml version="1.0" encoding="UTF-8"?>
<svg version="1.1" xmlns="http://www.w3.org/2000/svg" width="563" height="443">
<path d="M0 0 C2.05121111 0.58313846 4.10874361 1.11650055 6.17626953 1.63818359 C29.07808052 7.90531193 49.56434909 22.61681494 66.84423828 38.51318359 C69.22223199 40.6971565 69.22223199 40.6971565 72.00048828 42.77099609 C72.72751953 43.38330078 73.45455078 43.99560547 74.20361328 44.62646484 C74.20361328 45.28646484 74.20361328 45.94646484 74.20361328 46.62646484 C75.19361328 46.95646484 76.18361328 47.28646484 77.20361328 47.62646484 C77.20361328 48.28646484 77.20361328 48.94646484 77.20361328 49.62646484 C77.86361328 49.62646484 78.52361328 49.62646484 79.20361328 49.62646484 C80.52361328 51.93646484 81.84361328 54.24646484 83.20361328 56.62646484 C79.7160544 57.78898447 77.71491366 57.43174633 74.07861328 57.00146484 C55.75007125 55.58722549 38.99485838 62.41978634 22.99267578 70.69677734 C17.69230262 73.43162067 12.27101016 75.91819101 6.86254883 78.43041992 C3.24053177 80.12722415 -0.28808804 81.86859266 -3.73779297 83.89599609 C-6.79638672 85.62646484 -6.79638672 85.62646484 -8.79638672 85.62646484 C-8.27624243 81.77739714 -7.54466735 80.26904237 -4.79638672 77.62646484 C-0.93156072 71.53193153 -0.01631228 64.49433052 -1.35888672 57.43896484 C-3.04835744 51.83763238 -6.7413706 47.98090729 -11.54638672 44.81396484 C-30.21572627 37.99247539 -51.7595846 41.75518524 -69.59228516 49.56494141 C-74.78831256 52.0674145 -79.79381104 55.00462181 -84.70776367 58.01904297 C-89.99986212 61.13641718 -94.59513823 62.90034226 -100.79638672 61.62646484 C-101.45638672 60.96646484 -102.11638672 60.30646484 -102.79638672 59.62646484 C-102.45721677 56.43826732 -101.81044989 53.66865436 -100.79638672 50.62646484 C-110.51323564 52.95005915 -118.27377108 57.74037755 -126.19482422 63.72021484 C-128.42725351 65.35598886 -130.64806788 66.75599694 -133.04638672 68.12646484 C-137.5335657 70.8589832 -140.50457323 74.59491799 -143.79638672 78.62646484 C-145.08376904 80.08858169 -146.37533057 81.54703116 -147.67138672 83.00146484 C-149.33515851 84.87414072 -150.67659446 86.38688033 -151.79638672 88.62646484 C-152.45638672 88.62646484 -153.11638672 88.62646484 -153.79638672 88.62646484 C-154.03744141 89.13951172 -154.27849609 89.65255859 -154.52685547 90.18115234 C-155.88236581 92.79207381 -157.3851199 95.29296359 -158.91870117 97.80249023 C-168.61953888 113.68798509 -177.76502878 132.46887742 -176.79638672 151.62646484 C-176.46638672 152.61646484 -176.13638672 153.60646484 -175.79638672 154.62646484 C-170.49485454 155.80813522 -165.39542781 155.84773735 -159.98388672 155.87646484 C-159.02417969 155.89708984 -158.06447266 155.91771484 -157.07568359 155.93896484 C-148.91988659 155.98350162 -141.77661545 154.50733398 -135.55419922 148.85693359 C-132.76553989 145.31843476 -131.08663704 141.22930298 -129.20532227 137.16381836 C-126.47742741 131.4991853 -123.09557875 126.72714586 -119.10888672 121.87646484 C-118.28880127 120.87607178 -118.28880127 120.87607178 -117.45214844 119.85546875 C-112.85384245 114.40940692 -108.48616395 110.64388753 -101.79638672 107.93896484 C-100.28044922 107.31441406 -100.28044922 107.31441406 -98.73388672 106.67724609 C-89.07192381 103.22103862 -78.04687846 103.83024462 -68.16357422 106.11474609 C-34.06121775 113.48670764 -1.30228363 99.3112174 27.40283203 82.22021484 C31.8616279 79.68299209 36.48935634 77.63685376 41.20361328 75.62646484 C42.36570312 75.08699219 42.36570312 75.08699219 43.55126953 74.53662109 C56.43754347 68.83568187 70.31381987 66.93346031 83.82861328 71.25146484 C97.19663473 76.56439645 105.39126156 87.96699223 111.35839844 100.6484375 C119.73254403 120.24616356 123.37934357 141.47020885 124.20361328 162.62646484 C124.25775391 163.83044922 124.31189453 165.03443359 124.36767578 166.27490234 C124.39603516 167.33966797 124.42439453 168.40443359 124.45361328 169.50146484 C124.47939453 170.42701172 124.50517578 171.35255859 124.53173828 172.30615234 C124.20361328 174.62646484 124.20361328 174.62646484 123.03173828 176.29833984 C116.3295535 181.16744844 107.00118599 183.09959399 99.07861328 185.25146484 C98.03543945 185.542229 98.03543945 185.542229 96.97119141 185.83886719 C80.98138496 190.00567244 65.14402799 191.11524201 48.67138672 191.01757812 C45.47075336 191.00155067 42.27139531 191.01749403 39.07080078 191.03662109 C20.7089722 191.05625715 2.62065461 189.38580697 -15.23388672 184.93896484 C-16.17941406 184.71402344 -17.12494141 184.48908203 -18.09912109 184.25732422 C-20.33428828 183.72406098 -22.56640231 183.18091722 -24.79638672 182.62646484 C-24.79638672 181.63646484 -24.79638672 180.64646484 -24.79638672 179.62646484 C-23.49701172 179.06958984 -23.49701172 179.06958984 -22.17138672 178.50146484 C-16.90570906 175.57608836 -12.40907127 171.69280261 -10.27685547 165.86474609 C-8.66637919 158.36228344 -8.51782976 150.91507085 -12.35888672 144.12646484 C-19.82575162 133.56569064 -30.43690625 129.17258228 -43.03076172 126.96240234 C-48.93158388 126.24563581 -54.86208065 125.92713635 -60.79638672 125.62646484 C-60.79638672 126.28646484 -60.79638672 126.94646484 -60.79638672 127.62646484 C-61.45638672 127.62646484 -62.11638672 127.62646484 -62.79638672 127.62646484 C-63.06193359 128.20525391 -63.32748047 128.78404297 -63.60107422 129.38037109 C-67.40226193 136.52312577 -73.88680481 142.61415031 -81.60888672 145.24365234 C-87.90811589 146.34601745 -95.54255003 146.6314903 -101.67138672 144.62646484 C-105.57903786 143.37601648 -108.71075309 143.48310928 -112.79638672 143.62646484 C-114.10141419 146.21712752 -115.36720649 148.82156927 -116.60107422 151.44677734 C-117.29085116 152.88183051 -117.98096479 154.31672188 -118.67138672 155.75146484 C-119.01041016 156.47978516 -119.34943359 157.20810547 -119.69873047 157.95849609 C-122.64974919 164.02884259 -122.64974919 164.02884259 -126.79638672 165.62646484 C-127.12638672 166.61646484 -127.45638672 167.60646484 -127.79638672 168.62646484 C-130.83791542 170.3660709 -133.91150531 171.89995084 -137.07373047 173.40185547 C-142.38701637 176.05849842 -146.58862424 179.03959235 -148.57373047 184.93505859 C-149.16624813 192.81120796 -147.58577509 198.50315255 -142.61669922 204.70849609 C-134.90210395 212.8369645 -124.72512762 216.70497336 -113.70043945 217.09790039 C-106.79523876 217.17589136 -100.61733913 217.16935779 -94.48779297 213.59912109 C-92.61880915 212.52434749 -90.8978829 212.06523877 -88.79638672 211.62646484 C-88.79638672 210.96646484 -88.79638672 210.30646484 -88.79638672 209.62646484 C-87.46305339 208.29313151 -86.12972005 206.95979818 -84.79638672 205.62646484 C-83.87287945 202.85594304 -83.63309087 201.05957726 -83.60888672 198.18896484 C-83.59470703 197.42712891 -83.58052734 196.66529297 -83.56591797 195.88037109 C-83.82212902 193.37471389 -84.61757244 191.82994077 -85.79638672 189.62646484 C-86.40396299 185.54702415 -86.1313151 184.10348405 -83.73388672 180.68896484 C-80.79638672 178.62646484 -80.79638672 178.62646484 -77.52294922 178.79833984 C-73.63803054 179.66165511 -70.75042005 180.96809045 -67.23388672 182.81396484 C-58.38413598 187.19254782 -49.11783298 189.56755939 -39.56787109 191.93554688 C-36.98633468 192.57911171 -34.41482131 193.25292401 -31.84326172 193.93505859 C-9.76072094 199.65012502 13.37683392 203.39474703 36.20361328 203.62646484 C36.91404785 203.64016113 37.62448242 203.65385742 38.35644531 203.66796875 C43.30932091 203.76210401 48.25113976 203.72116906 53.20361328 203.62646484 C53.93918457 203.61921387 54.67475586 203.61196289 55.43261719 203.60449219 C74.87360934 203.35997747 95.147387 200.66052935 113.32080078 193.54443359 C116.43310382 192.55338859 118.95776089 192.45690539 122.20361328 192.62646484 C121.72089996 200.27985805 120.16521125 207.368908 118.14111328 214.75146484 C117.85945313 215.80333984 117.57779297 216.85521484 117.28759766 217.93896484 C116.59985739 220.50342009 115.90510603 223.06574415 115.20361328 225.62646484 C116.02345703 225.51947266 116.84330078 225.41248047 117.68798828 225.30224609 C118.76564453 225.18236328 119.84330078 225.06248047 120.95361328 224.93896484 C122.02095703 224.81134766 123.08830078 224.68373047 124.18798828 224.55224609 C127.68849028 224.63839834 128.55806893 225.50098477 131.20361328 227.62646484 C133.07004388 227.19318631 134.93530707 226.74243816 136.76611328 226.17724609 C141.49768766 225.10809227 146.37977303 225.48174964 151.20361328 225.62646484 C151.20361328 226.28646484 151.20361328 226.94646484 151.20361328 227.62646484 C151.96673828 227.70896484 152.72986328 227.79146484 153.51611328 227.87646484 C156.75076519 228.7791584 157.55460594 229.76239945 159.20361328 232.62646484 C159.20361328 233.28646484 159.20361328 233.94646484 159.20361328 234.62646484 C159.86361328 234.62646484 160.52361328 234.62646484 161.20361328 234.62646484 C161.20361328 235.61646484 161.20361328 236.60646484 161.20361328 237.62646484 C157.94818099 237.27766853 157.18488221 236.60513223 154.95361328 234.06396484 C154.08736328 232.85740234 154.08736328 232.85740234 153.20361328 231.62646484 C150.39299768 232.70111199 147.75231785 233.86113847 145.07861328 235.25146484 C142.20361328 236.62646484 142.20361328 236.62646484 139.20361328 236.62646484 C139.39111328 234.81396484 139.39111328 234.81396484 140.20361328 232.62646484 C141.85361328 231.63646484 143.50361328 230.64646484 145.20361328 229.62646484 C138.27361328 230.61646484 138.27361328 230.61646484 131.20361328 231.62646484 C130.54361328 233.27646484 129.88361328 234.92646484 129.20361328 236.62646484 C128.21361328 236.95646484 127.22361328 237.28646484 126.20361328 237.62646484 C125.87361328 238.61646484 125.54361328 239.60646484 125.20361328 240.62646484 C120.48544024 242.47672878 117.11889727 242.8253146 112.20361328 241.62646484 C113.64462501 238.04717766 115.34642129 236.55245711 118.57861328 234.50146484 C119.34947266 234.00388672 120.12033203 233.50630859 120.91455078 232.99365234 C122.97305263 231.76417172 125.04257842 230.66257745 127.20361328 229.62646484 C126.87361328 229.29646484 126.54361328 228.96646484 126.20361328 228.62646484 C123.84666374 228.71678059 121.49207746 228.87334613 119.14111328 229.06396484 C117.85076172 229.16580078 116.56041016 229.26763672 115.23095703 229.37255859 C114.23193359 229.45634766 113.23291016 229.54013672 112.20361328 229.62646484 C112.07083984 230.35994141 111.93806641 231.09341797 111.80126953 231.84912109 C109.42662399 242.8842386 102.97323114 253.65859399 96.32861328 262.68896484 C94.42606844 265.3189533 93.22419009 267.56473443 92.20361328 270.62646484 C91.54361328 270.62646484 90.88361328 270.62646484 90.20361328 270.62646484 C89.99994141 271.31095703 89.79626953 271.99544922 89.58642578 272.70068359 C83.73238391 285.08677784 70.41764334 292.78198204 58.20361328 297.62646484 C57.31802734 298.00416016 56.43244141 298.38185547 55.52001953 298.77099609 C40.95899715 303.87317833 23.53167981 301.18467066 9.20361328 296.62646484 C8.22005859 296.36091797 7.23650391 296.09537109 6.22314453 295.82177734 C-3.75806859 292.93066734 -12.75937821 287.6479704 -21.79638672 282.62646484 C-23.22144531 281.835625 -23.22144531 281.835625 -24.67529297 281.02880859 C-30.5642808 277.61100347 -36.10290948 273.68180514 -41.69458008 269.80566406 C-50.82528601 263.49787969 -60.11688699 257.75578545 -70.14013672 252.95068359 C-72.79638672 251.62646484 -72.79638672 251.62646484 -75.14013672 250.20849609 C-81.47701576 246.43432549 -88.05614516 243.62506417 -94.98388672 241.12646484 C-96.23987671 240.67255371 -96.23987671 240.67255371 -97.52124023 240.20947266 C-99.94363778 239.34078931 -102.36961953 238.48284774 -104.79638672 237.62646484 C-105.92560547 237.21912109 -107.05482422 236.81177734 -108.21826172 236.39208984 C-124.0068226 231.07469887 -143.15478918 227.40726598 -158.79638672 234.62646484 C-159.12638672 234.95646484 -159.45638672 235.28646484 -159.79638672 235.62646484 C-159.79638672 242.97118471 -157.77285535 246.79957661 -153.29248047 252.56005859 C-151.79638672 254.62646484 -151.79638672 254.62646484 -151.79638672 256.62646484 C-151.13638672 256.62646484 -150.47638672 256.62646484 -149.79638672 256.62646484 C-148.31591797 258.13037109 -148.31591797 258.13037109 -146.60888672 260.18896484 C-133.55041319 275.45071991 -114.8166373 288.70092551 -94.79638672 292.62646484 C-93.47277788 289.67405863 -93.47277788 289.67405863 -94.73388672 286.93896484 C-96.32054923 281.99231112 -96.71885383 277.70201585 -94.54638672 272.81396484 C-90.98901591 268.36725134 -87.76661061 266.86022022 -82.10888672 266.18896484 C-71.29314182 266.31287681 -60.23783654 272.28082326 -51.79638672 278.62646484 C-49.65700546 280.15769711 -47.51417232 281.68051287 -45.35888672 283.18896484 C-44.79991699 283.58043701 -44.24094727 283.97190918 -43.66503906 284.37524414 C-39.68761267 287.11719624 -35.66062474 289.34676254 -31.29638672 291.39599609 C-28.50859847 292.76811062 -25.89264023 294.33143045 -23.23388672 295.93896484 C-2.40563097 308.18458889 18.15434296 313.46672846 42.20361328 314.62646484 C42.20361328 315.61646484 42.20361328 316.60646484 42.20361328 317.62646484 C32.09411881 323.2186421 21.8826545 328.21457282 11.20361328 332.62646484 C10.29611328 333.00544922 9.38861328 333.38443359 8.45361328 333.77490234 C2.60527981 336.05940761 -3.41388731 337.67703718 -9.48388672 339.25146484 C-10.64936035 339.56108154 -10.64936035 339.56108154 -11.83837891 339.87695312 C-24.49389403 343.03698134 -37.28103013 343.96661859 -50.27856445 343.88720703 C-52.36227353 343.87644736 -54.44512452 343.88721035 -56.52880859 343.89990234 C-83.23960601 343.92891685 -109.04020853 336.59724806 -132.79638672 324.62646484 C-133.85986328 324.10568359 -134.92333984 323.58490234 -136.01904297 323.04833984 C-142.74365486 319.61520465 -148.9233907 315.63225038 -155.10888672 311.31396484 C-155.86927246 310.78585205 -156.6296582 310.25773926 -157.41308594 309.71362305 C-158.11320801 309.21435303 -158.81333008 308.71508301 -159.53466797 308.20068359 C-160.1641333 307.75297607 -160.79359863 307.30526855 -161.44213867 306.84399414 C-161.88904053 306.44220947 -162.33594238 306.0404248 -162.79638672 305.62646484 C-162.79638672 304.96646484 -162.79638672 304.30646484 -162.79638672 303.62646484 C-163.38419922 303.35447266 -163.97201172 303.08248047 -164.57763672 302.80224609 C-170.07598034 299.88851118 -173.96060134 295.42119657 -177.79638672 290.62646484 C-178.96665695 289.58592434 -180.15567062 288.56622627 -181.35888672 287.56396484 C-183.89270035 285.44882857 -186.06451097 283.47896608 -187.79638672 280.62646484 C-187.79638672 279.96646484 -187.79638672 279.30646484 -187.79638672 278.62646484 C-188.45638672 278.62646484 -189.11638672 278.62646484 -189.79638672 278.62646484 C-191.45002065 276.55564356 -192.97821296 274.48910717 -194.48388672 272.31396484 C-194.93159424 271.67313965 -195.37930176 271.03231445 -195.84057617 270.37207031 C-197.16737114 268.46237976 -198.48221204 266.54485186 -199.79638672 264.62646484 C-200.44607422 263.69705078 -201.09576172 262.76763672 -201.76513672 261.81005859 C-206.51831502 254.73430453 -209.7918544 247.21174854 -213.0546875 239.37548828 C-213.95051884 237.26300122 -214.93358498 235.19727812 -215.92138672 233.12646484 C-222.66366217 217.96357928 -226.1528572 201.04251495 -227.79638672 184.62646484 C-227.87163574 183.91731934 -227.94688477 183.20817383 -228.02441406 182.47753906 C-232.02051217 142.19016587 -219.90161097 95.11991969 -194.09326172 63.21240234 C-191.38951841 59.96131814 -188.60238884 56.78951813 -185.79638672 53.62646484 C-184.52517916 52.1684577 -183.25428639 50.71017597 -181.98388672 49.25146484 C-181.44763672 48.64560547 -180.91138672 48.03974609 -180.35888672 47.41552734 C-179.25779503 46.15477736 -178.17610222 44.87695441 -177.10888672 43.58740234 C-176.57263672 42.94029297 -176.03638672 42.29318359 -175.48388672 41.62646484 C-175.01337891 41.04896484 -174.54287109 40.47146484 -174.05810547 39.87646484 C-172.79638672 38.62646484 -172.79638672 38.62646484 -170.79638672 38.62646484 C-170.79638672 37.96646484 -170.79638672 37.30646484 -170.79638672 36.62646484 C-168.88232422 35.03271484 -168.88232422 35.03271484 -166.17138672 33.12646484 C-165.16462891 32.41490234 -164.15787109 31.70333984 -163.12060547 30.97021484 C-162.57839355 30.58994141 -162.03618164 30.20966797 -161.47753906 29.81787109 C-159.78350797 28.61733787 -158.11065751 27.39176503 -156.44091797 26.15771484 C-148.53529823 20.34608291 -140.43042187 15.28278851 -131.79638672 10.62646484 C-130.94689453 10.15466797 -130.09740234 9.68287109 -129.22216797 9.19677734 C-90.32496955 -11.50553322 -41.43947473 -12.00698005 0 0 Z M-177.79638672 175.62646484 C-179.58757115 177.41764927 -179.05376884 179.95127815 -179.10888672 182.37646484 C-179.05276549 189.69627596 -177.31267573 195.80394928 -174.79638672 202.62646484 C-174.47283203 203.57134766 -174.14927734 204.51623047 -173.81591797 205.48974609 C-171.99302664 210.51199772 -170.28139316 214.42288881 -165.79638672 217.62646484 C-162.58576884 218.04536702 -162.58576884 218.04536702 -159.79638672 217.62646484 C-159.34205881 211.60662 -160.36856945 207.40892883 -162.60498047 201.82958984 C-163.50653239 199.40574532 -164.23764185 197.10035401 -164.89404297 194.61083984 C-167.0733631 186.49073624 -169.09511804 180.08888221 -176.79638672 175.62646484 C-177.12638672 175.62646484 -177.45638672 175.62646484 -177.79638672 175.62646484 Z M123.20361328 234.62646484 C122.21361328 235.12146484 122.21361328 235.12146484 121.20361328 235.62646484 C121.20361328 236.28646484 121.20361328 236.94646484 121.20361328 237.62646484 C122.52361328 236.96646484 123.84361328 236.30646484 125.20361328 235.62646484 C124.54361328 235.29646484 123.88361328 234.96646484 123.20361328 234.62646484 Z M118.20361328 237.62646484 C118.20361328 238.28646484 118.20361328 238.94646484 118.20361328 239.62646484 C119.19361328 239.29646484 120.18361328 238.96646484 121.20361328 238.62646484 C120.21361328 238.29646484 119.22361328 237.96646484 118.20361328 237.62646484 Z " fill="#3F3F3F" transform="translate(321.79638671875,43.37353515625)"/>
<path d="M0 0 C2.01410055 1.09889655 2.01410055 1.09889655 4.4375 -0.0625 C9.57233622 -1.71298307 14.58691528 -1.34334227 19.9375 -1.1875 C19.9375 -0.5275 19.9375 0.1325 19.9375 0.8125 C20.700625 0.895 21.46375 0.9775 22.25 1.0625 C25.48465191 1.96519355 26.28849265 2.94843461 27.9375 5.8125 C27.9375 6.4725 27.9375 7.1325 27.9375 7.8125 C28.5975 7.8125 29.2575 7.8125 29.9375 7.8125 C29.9375 8.8025 29.9375 9.7925 29.9375 10.8125 C26.68206771 10.46370368 25.91876893 9.79116739 23.6875 7.25 C23.11 6.445625 22.5325 5.64125 21.9375 4.8125 C19.1268844 5.88714714 16.48620457 7.04717362 13.8125 8.4375 C10.9375 9.8125 10.9375 9.8125 7.9375 9.8125 C8.125 8 8.125 8 8.9375 5.8125 C10.5875 4.8225 12.2375 3.8325 13.9375 2.8125 C9.3175 3.4725 4.6975 4.1325 -0.0625 4.8125 C-0.7225 6.4625 -1.3825 8.1125 -2.0625 9.8125 C-3.0525 10.1425 -4.0425 10.4725 -5.0625 10.8125 C-5.3925 11.8025 -5.7225 12.7925 -6.0625 13.8125 C-10.78067304 15.66276394 -14.14721601 16.01134975 -19.0625 14.8125 C-17.62148828 11.23321281 -15.91969199 9.73849226 -12.6875 7.6875 C-11.91664063 7.18992187 -11.14578125 6.69234375 -10.3515625 6.1796875 C-8.29306065 4.95020688 -6.22353487 3.84861261 -4.0625 2.8125 C-4.3925 2.4825 -4.7225 2.1525 -5.0625 1.8125 C-7.41944954 1.90281574 -9.77403582 2.05938128 -12.125 2.25 C-13.41535156 2.35183594 -14.70570313 2.45367187 -16.03515625 2.55859375 C-17.03417969 2.64238281 -18.03320312 2.72617187 -19.0625 2.8125 C-18.29296875 0.86328125 -18.29296875 0.86328125 -17.0625 -1.1875 C-11.38947123 -2.43748939 -5.23169475 -3.01218788 0 0 Z M-8.0625 7.8125 C-9.0525 8.3075 -9.0525 8.3075 -10.0625 8.8125 C-10.0625 9.4725 -10.0625 10.1325 -10.0625 10.8125 C-8.7425 10.1525 -7.4225 9.4925 -6.0625 8.8125 C-6.7225 8.4825 -7.3825 8.1525 -8.0625 7.8125 Z M-13.0625 10.8125 C-13.0625 11.4725 -13.0625 12.1325 -13.0625 12.8125 C-12.0725 12.4825 -11.0825 12.1525 -10.0625 11.8125 C-11.0525 11.4825 -12.0425 11.1525 -13.0625 10.8125 Z " fill="#8D8B8C" transform="translate(453.0625,270.1875)"/>
<path d="M0 0 C-0.125 1.875 -0.125 1.875 -1 4 C-3.6875 5.0625 -3.6875 5.0625 -7 6 C-9.01586684 6.96761608 -11.01753602 7.96567096 -13 9 C-13.7425 9.28875 -14.485 9.5775 -15.25 9.875 C-17.70233371 11.45150024 -18.14270678 13.28523815 -19 16 C-19.33 15.34 -19.66 14.68 -20 14 C-20.99 14.33 -21.98 14.66 -23 15 C-23 14.34 -23 13.68 -23 13 C-22.34 13 -21.68 13 -21 13 C-21.350625 12.38125 -21.70125 11.7625 -22.0625 11.125 C-22.5265625 10.073125 -22.5265625 10.073125 -23 9 C-22.67 8.34 -22.34 7.68 -22 7 C-22.99 7.66 -23.98 8.32 -25 9 C-26.62642986 9.6163599 -28.2753815 10.17511761 -29.9375 10.6875 C-30.79214844 10.95949219 -31.64679688 11.23148437 -32.52734375 11.51171875 C-35.10510574 12.02075548 -36.54449337 11.84888744 -39 11 C-39 10.34 -39 9.68 -39 9 C-36.36 8.34 -33.72 7.68 -31 7 C-31 6.34 -31 5.68 -31 5 C-26.05480351 3.57511288 -23.05268792 2.81113225 -18 4 C-17.34 3.34 -16.68 2.68 -16 2 C-15.67 2.99 -15.34 3.98 -15 5 C-13.948125 4.54625 -12.89625 4.0925 -11.8125 3.625 C-10.54168185 3.08329772 -9.27084896 2.54163001 -8 2 C-7.0925 1.608125 -6.185 1.21625 -5.25 0.8125 C-3 0 -3 0 0 0 Z " fill="#312D2E" transform="translate(411,270)"/>
<path d="M0 0 C1.07894531 0.03480469 2.15789062 0.06960938 3.26953125 0.10546875 C4.35621094 0.13253906 5.44289063 0.15960938 6.5625 0.1875 C7.80966797 0.23970703 7.80966797 0.23970703 9.08203125 0.29296875 C9.08203125 0.95296875 9.08203125 1.61296875 9.08203125 2.29296875 C10.22671875 2.41671875 10.22671875 2.41671875 11.39453125 2.54296875 C14.62918316 3.4456623 15.4330239 4.42890336 17.08203125 7.29296875 C17.08203125 7.95296875 17.08203125 8.61296875 17.08203125 9.29296875 C17.74203125 9.29296875 18.40203125 9.29296875 19.08203125 9.29296875 C19.08203125 10.28296875 19.08203125 11.27296875 19.08203125 12.29296875 C15.82659896 11.94417243 15.06330018 11.27163614 12.83203125 8.73046875 C12.25453125 7.92609375 11.67703125 7.12171875 11.08203125 6.29296875 C8.27141565 7.36761589 5.63073582 8.52764237 2.95703125 9.91796875 C0.08203125 11.29296875 0.08203125 11.29296875 -2.91796875 11.29296875 C-2.73046875 9.48046875 -2.73046875 9.48046875 -1.91796875 7.29296875 C0.64453125 5.54296875 0.64453125 5.54296875 3.08203125 4.29296875 C0.11203125 3.96296875 -2.85796875 3.63296875 -5.91796875 3.29296875 C-2.91796875 0.29296875 -2.91796875 0.29296875 0 0 Z " fill="#888787" transform="translate(463.91796875,268.70703125)"/>
<path d="M0 0 C0.33 0.66 0.66 1.32 1 2 C1.99 1.67 2.98 1.34 4 1 C4.66 1.33 5.32 1.66 6 2 C5.67 3.32 5.34 4.64 5 6 C6.32 6.33 7.64 6.66 9 7 C6.71070947 8.17154293 4.41881638 9.33738074 2.125 10.5 C1.47402344 10.83386719 0.82304687 11.16773437 0.15234375 11.51171875 C-4.7734375 14 -4.7734375 14 -7 14 C-6.47985572 10.1509323 -5.74828063 8.64257753 -3 6 C-1.95377125 4.02379014 -0.94560065 2.0262871 0 0 Z " fill="#504E4F" transform="translate(320,115)"/>
<path d="M0 0 C0.99 0.33 1.98 0.66 3 1 C2.01 1.495 2.01 1.495 1 2 C1 2.66 1 3.32 1 4 C1.5775 3.34 2.155 2.68 2.75 2 C5 0 5 0 9 0 C8.67 1.32 8.34 2.64 8 4 C7.34 4 6.68 4 6 4 C5.67 4.99 5.34 5.98 5 7 C0.28182696 8.85026394 -3.08471601 9.19884975 -8 8 C-6.49860488 3.79609368 -3.82724957 2.10889262 0 0 Z M-2 4 C-2 4.66 -2 5.32 -2 6 C-1.01 5.67 -0.02 5.34 1 5 C0.01 4.67 -0.98 4.34 -2 4 Z " fill="#8A8787" transform="translate(442,277)"/>
<path d="M0 0 C0.33 0.66 0.66 1.32 1 2 C-2.90635712 6.15050444 -7.11250427 10.02455804 -12 13 C-12.99 13 -13.98 13 -15 13 C-15.33 14.32 -15.66 15.64 -16 17 C-17.65 17.33 -19.3 17.66 -21 18 C-20.34 17.34 -19.68 16.68 -19 16 C-19.66 16 -20.32 16 -21 16 C-21 15.34 -21 14.68 -21 14 C-20.01 14 -19.02 14 -18 14 C-17.67 12.68 -17.34 11.36 -17 10 C-12.25 9 -12.25 9 -10 9 C-8.24740887 7.55195749 -6.54551107 6.04201022 -4.875 4.5 C-3.96492188 3.6646875 -3.05484375 2.829375 -2.1171875 1.96875 C-1.41851562 1.3190625 -0.71984375 0.669375 0 0 Z " fill="#2E2B2C" transform="translate(379,313)"/>
<path d="M0 0 C4.95 0 9.9 0 15 0 C15 0.99 15 1.98 15 3 C13.37750059 3.83819158 11.75191503 4.6704116 10.125 5.5 C9.22007812 5.9640625 8.31515625 6.428125 7.3828125 6.90625 C5 8 5 8 3 8 C3 7.34 3 6.68 3 6 C3.66 6 4.32 6 5 6 C5.33 4.35 5.66 2.7 6 1 C4.02 1 2.04 1 0 1 C0 0.67 0 0.34 0 0 Z " fill="#6E6B6C" transform="translate(349,358)"/>
<path d="M0 0 C1.99549104 3.99098207 2.29642062 5.73714626 2.3125 10.0625 C2.33763672 11.62677734 2.33763672 11.62677734 2.36328125 13.22265625 C2 16 2 16 0.60546875 17.796875 C-2.33840551 20.00299002 -4.27580494 21 -8 21 C-6.63016497 17.83884224 -6.0109362 17.0072908 -3 15 C-2.01 15.33 -1.02 15.66 0 16 C0 10.72 0 5.44 0 0 Z " fill="#4B4646" transform="translate(444,202)"/>
<path d="M0 0 C0.33 0.66 0.66 1.32 1 2 C2.3153341 2.70151152 3.65117592 3.36525925 5 4 C5.99 4.66 6.98 5.32 8 6 C3.15507803 7.51403812 -0.2591011 6.36602172 -5 5 C-5 4.01 -5 3.02 -5 2 C-3.35 1.34 -1.7 0.68 0 0 Z M5 2 C7 3 7 3 7 3 Z " fill="#4C4A4B" transform="translate(302,221)"/>
<path d="M0 0 C2.97 0.495 2.97 0.495 6 1 C6 1.66 6 2.32 6 3 C8.31 3.33 10.62 3.66 13 4 C13 4.99 13 5.98 13 7 C14.32 7.33 15.64 7.66 17 8 C16.01 8.66 15.02 9.32 14 10 C11.66390677 8.52504318 9.33109833 7.04531255 7 5.5625 C6.33226562 5.14162109 5.66453125 4.72074219 4.9765625 4.28710938 C3.30037435 3.21811183 1.64799163 2.11197395 0 1 C0 0.67 0 0.34 0 0 Z " fill="#5E5D5E" transform="translate(263,301)"/>
<path d="M0 0 C-0.56460938 0.27585937 -1.12921875 0.55171875 -1.7109375 0.8359375 C-4.8632464 2.43898878 -7.91093906 4.21459288 -10.9765625 5.9765625 C-13 7 -13 7 -15 7 C-14.67 6.01 -14.34 5.02 -14 4 C-13.34 4 -12.68 4 -12 4 C-11.71125 3.360625 -11.4225 2.72125 -11.125 2.0625 C-8.62156936 -2.52712284 -4.45589705 -0.64682377 0 0 Z " fill="#504E4F" transform="translate(221,92)"/>
<path d="M0 0 C2.31 0 4.62 0 7 0 C6.67 1.65 6.34 3.3 6 5 C5.34 5 4.68 5 4 5 C4 5.66 4 6.32 4 7 C1.525 6.01 1.525 6.01 -1 5 C-1 4.01 -1 3.02 -1 2 C-0.01 2 0.98 2 2 2 C1.34 1.34 0.68 0.68 0 0 Z " fill="#393738" transform="translate(348,359)"/>
<path d="M0 0 C7.26 0 14.52 0 22 0 C14.57076604 3.71461698 7.79487162 3.45394107 0 1 C0 0.67 0 0.34 0 0 Z " fill="#333132" transform="translate(151,201)"/>
<path d="M0 0 C0 0.99 0 1.98 0 3 C-1.32 3 -2.64 3 -4 3 C-4.33 3.99 -4.66 4.98 -5 6 C-5.66 6 -6.32 6 -7 6 C-8.2065625 6.5259375 -8.2065625 6.5259375 -9.4375 7.0625 C-12 8 -12 8 -15 7 C-13.5839401 6.20724852 -12.16712447 5.41584688 -10.75 4.625 C-9.56664062 3.96371094 -9.56664062 3.96371094 -8.359375 3.2890625 C-2.33939394 0 -2.33939394 0 0 0 Z " fill="#5D5D5D" transform="translate(361,121)"/>
<path d="M0 0 C0.33 1.32 0.66 2.64 1 4 C1.33 3.01 1.66 2.02 2 1 C2.66 1 3.32 1 4 1 C4.33 1.99 4.66 2.98 5 4 C-1.75 8 -1.75 8 -4 8 C-3.50168276 4.31245243 -2.89932357 2.39509338 0 0 Z " fill="#6E6B6C" transform="translate(317,121)"/>
<path d="M0 0 C-2.20187672 2.20187672 -4.22885682 3.28178929 -7 4.6875 C-7.886875 5.14511719 -8.77375 5.60273437 -9.6875 6.07421875 C-10.450625 6.37972656 -11.21375 6.68523437 -12 7 C-12.66 6.67 -13.32 6.34 -14 6 C-14 5.34 -14 4.68 -14 4 C-9.22642128 1.28608722 -5.65611463 -0.56561146 0 0 Z " fill="#70696F" transform="translate(343,114)"/>
<path d="M0 0 C5.25431335 0.41210301 8.2354518 1.2354518 12 5 C12.33 5.99 12.66 6.98 13 8 C10.03216871 6.54331217 7.13584687 4.98767914 4.25 3.375 C3.45078125 2.92898438 2.6515625 2.48296875 1.828125 2.0234375 C1.22484375 1.68570312 0.6215625 1.34796875 0 1 C0 0.67 0 0.34 0 0 Z " fill="#676666" transform="translate(287,317)"/>
<path d="M0 0 C0 0.66 0 1.32 0 2 C-1.24420647 2.5345256 -2.49570936 3.05208611 -3.75 3.5625 C-4.44609375 3.85253906 -5.1421875 4.14257812 -5.859375 4.44140625 C-8.30012784 5.07831803 -9.6403655 4.80248831 -12 4 C-12 3.34 -12 2.68 -12 2 C-10.37787941 1.47026689 -8.75218416 0.95146893 -7.125 0.4375 C-6.22007812 0.14746094 -5.31515625 -0.14257812 -4.3828125 -0.44140625 C-2 -1 -2 -1 0 0 Z " fill="#262223" transform="translate(384,277)"/>
<path d="M0 0 C3.3 0 6.6 0 10 0 C9.67 0.99 9.34 1.98 9 3 C9.99 3.33 10.98 3.66 12 4 C11.67 4.66 11.34 5.32 11 6 C7.2089881 4.55049545 3.6125362 2.84827434 0 1 C0 0.67 0 0.34 0 0 Z " fill="#605D5E" transform="translate(181,363)"/>
<path d="M0 0 C0.66 0.33 1.32 0.66 2 1 C2 2.98 2 4.96 2 7 C-4.4 8.23076923 -4.4 8.23076923 -7.4375 7.0625 C-7.953125 6.711875 -8.46875 6.36125 -9 6 C-9 5.34 -9 4.68 -9 4 C-6.36 4.33 -3.72 4.66 -1 5 C-0.67 3.35 -0.34 1.7 0 0 Z " fill="#767576" transform="translate(228,331)"/>
<path d="M0 0 C0.99 0 1.98 0 3 0 C1.54955729 4.10958767 -0.51110752 7.43258745 -3 11 C-3.99 10.34 -4.98 9.68 -6 9 C-5.34 9 -4.68 9 -4 9 C-3.67 7.02 -3.34 5.04 -3 3 C-2.01 3 -1.02 3 0 3 C0 2.01 0 1.02 0 0 Z " fill="#5C5C5C" transform="translate(420,297)"/>
<path d="M0 0 C-1.17369141 0.18175781 -1.17369141 0.18175781 -2.37109375 0.3671875 C-3.38300781 0.53476562 -4.39492188 0.70234375 -5.4375 0.875 C-6.44683594 1.03742188 -7.45617187 1.19984375 -8.49609375 1.3671875 C-9.32238281 1.57601563 -10.14867187 1.78484375 -11 2 C-11.33 2.66 -11.66 3.32 -12 4 C-12 2.02 -12 0.04 -12 -2 C-7.05687635 -3.20238143 -4.43956276 -2.29632557 0 0 Z " fill="#A19C9D" transform="translate(464,273)"/>
<path d="M0 0 C0.33 0 0.66 0 1 0 C1 1.65 1 3.3 1 5 C1.66 5 2.32 5 3 5 C1.9024777 7.99324263 1.32317108 8.84610901 -1.625 10.25 C-2.40875 10.4975 -3.1925 10.745 -4 11 C-2.7874262 7.27566618 -1.49140021 3.62197194 0 0 Z " fill="#696567" transform="translate(115,126)"/>
<path d="M0 0 C1.33641852 0.32074044 2.66869885 0.65864073 4 1 C5.19625 1.28875 6.3925 1.5775 7.625 1.875 C11 3 11 3 13 6 C9.12049035 6 7.63334507 5.59216239 4.25 4 C3.45078125 3.62875 2.6515625 3.2575 1.828125 2.875 C1.22484375 2.58625 0.6215625 2.2975 0 2 C0 1.34 0 0.68 0 0 Z " fill="#626061" transform="translate(309,329)"/>
<path d="M0 0 C0.66 0 1.32 0 2 0 C2 2.31 2 4.62 2 7 C-0.64 7 -3.28 7 -6 7 C-5.67 6.01 -5.34 5.02 -5 4 C-3.35 3.67 -1.7 3.34 0 3 C0 2.01 0 1.02 0 0 Z " fill="#7C7778" transform="translate(450,271)"/>
<path d="M0 0 C0.99 0 1.98 0 3 0 C3.66 1.65 4.32 3.3 5 5 C5.66 5 6.32 5 7 5 C7 5.99 7 6.98 7 8 C4.13275314 7.42655063 3.1385485 7.1385485 1 5 C0.375 2.375 0.375 2.375 0 0 Z " fill="#747373" transform="translate(476,273)"/>
<path d="M0 0 C0.99 0 1.98 0 3 0 C2.49287967 3.71888239 1.88391785 6.73454239 0 10 C-0.66 9.67 -1.32 9.34 -2 9 C-2 5.20442119 -1.49821059 3.37097383 0 0 Z " fill="#2C2729" transform="translate(414,271)"/>
<path d="M0 0 C4.875 1.875 4.875 1.875 6 3 C8.32817964 3.36760731 10.6618385 3.70241581 13 4 C13.33 4.99 13.66 5.98 14 7 C13.01 7 12.02 7 11 7 C11 6.34 11 5.68 11 5 C10.0925 5.04125 9.185 5.0825 8.25 5.125 C5.1217954 5.00468444 3.61385994 4.6085292 1 3 C0.67 3.66 0.34 4.32 0 5 C0 3.35 0 1.7 0 0 Z " fill="#262425" transform="translate(357,276)"/>
<path d="M0 0 C3.96 0 7.92 0 12 0 C12 0.66 12 1.32 12 2 C13.65 2.33 15.3 2.66 17 3 C16.34 4.32 15.68 5.64 15 7 C13.62437146 5.71034824 12.29233607 4.37310707 11 3 C11 2.34 11 1.68 11 1 C7.37 1 3.74 1 0 1 C0 0.67 0 0.34 0 0 Z " fill="#8F8C8E" transform="translate(461,269)"/>
<path d="M0 0 C2.475 0.99 2.475 0.99 5 2 C2.06171403 4.50298434 -0.17902761 5.46930939 -4 6 C-2.84826645 3.53199953 -1.95216435 1.95216435 0 0 Z " fill="#565355" transform="translate(440,217)"/>
<path d="M0 0 C0 2.66666667 0 5.33333333 0 8 C-2.31 8.66 -4.62 9.32 -7 10 C-5.33248852 6.05860922 -2.77289351 3.2107188 0 0 Z " fill="#6C696B" transform="translate(131,103)"/>
<path d="M0 0 C5.4185766 -0.22577402 9.77487721 0.53329887 15 2 C15 2.33 15 2.66 15 3 C9.87416389 3.10251672 5.05002222 3.03590199 0 2 C0 1.34 0 0.68 0 0 Z " fill="#636162" transform="translate(294,38)"/>
<path d="M0 0 C0.99 0.33 1.98 0.66 3 1 C2.34 2.98 1.68 4.96 1 7 C-0.65 7.33 -2.3 7.66 -4 8 C-3.34 7.34 -2.68 6.68 -2 6 C-2.66 6 -3.32 6 -4 6 C-4 5.34 -4 4.68 -4 4 C-3.01 4 -2.02 4 -1 4 C-0.67 2.68 -0.34 1.36 0 0 Z " fill="#333132" transform="translate(362,323)"/>
<path d="M0 0 C1.98 0.495 1.98 0.495 4 1 C4.6875 2.75 4.6875 2.75 5 5 C3.5625 7.25 3.5625 7.25 2 9 C1.87625 8.195625 1.7525 7.39125 1.625 6.5625 C1.315625 5.2940625 1.315625 5.2940625 1 4 C0.34 3.67 -0.32 3.34 -1 3 C-0.67 2.01 -0.34 1.02 0 0 Z " fill="#666263" transform="translate(429,272)"/>
<path d="M0 0 C1.09054687 0.02320313 2.18109375 0.04640625 3.3046875 0.0703125 C4.40039062 0.08835937 5.49609375 0.10640625 6.625 0.125 C7.46804688 0.14820313 8.31109375 0.17140625 9.1796875 0.1953125 C9.1796875 0.8553125 9.1796875 1.5153125 9.1796875 2.1953125 C9.8396875 2.5253125 10.4996875 2.8553125 11.1796875 3.1953125 C9.8596875 3.5253125 8.5396875 3.8553125 7.1796875 4.1953125 C7.1796875 3.5353125 7.1796875 2.8753125 7.1796875 2.1953125 C3.2196875 2.1953125 -0.7403125 2.1953125 -4.8203125 2.1953125 C-2.8203125 0.1953125 -2.8203125 0.1953125 0 0 Z " fill="#5C595A" transform="translate(462.8203125,269.8046875)"/>
<path d="M0 0 C4.10958767 1.45044271 7.43258745 3.51110752 11 6 C9.02 6.99 9.02 6.99 7 8 C6.401875 7.38125 5.80375 6.7625 5.1875 6.125 C2.99188856 3.86323046 2.99188856 3.86323046 0 2 C0 1.34 0 0.68 0 0 Z " fill="#5F5E5E" transform="translate(358,60)"/>
<path d="M0 0 C0.66 0.33 1.32 0.66 2 1 C2 4.96 2 8.92 2 13 C0.00203045 10.00304568 -0.34510261 8.82142616 -0.6875 5.375 C-0.77386719 4.57835937 -0.86023438 3.78171875 -0.94921875 2.9609375 C-0.96597656 2.31382812 -0.98273438 1.66671875 -1 1 C-0.67 0.67 -0.34 0.34 0 0 Z " fill="#5D5A5B" transform="translate(99,246)"/>
<path d="M0 0 C0.66 0 1.32 0 2 0 C1.01 2.97 0.02 5.94 -1 9 C-1.66 9 -2.32 9 -3 9 C-2.25 2.25 -2.25 2.25 0 0 Z " fill="#1E181A" transform="translate(393,274)"/>
<path d="M0 0 C-1.98 0.33 -3.96 0.66 -6 1 C-6 1.66 -6 2.32 -6 3 C-6.66 3 -7.32 3 -8 3 C-8.33 3.66 -8.66 4.32 -9 5 C-10.32 4.34 -11.64 3.68 -13 3 C-11.5903653 2.29819469 -10.17192359 1.61406042 -8.75 0.9375 C-7.96109375 0.55464844 -7.1721875 0.17179688 -6.359375 -0.22265625 C-3.74006478 -1.08564091 -2.55144824 -0.93045933 0 0 Z " fill="#6E6D6D" transform="translate(230,150)"/>
<path d="M0 0 C0.66 0.33 1.32 0.66 2 1 C1.01 2.98 0.02 4.96 -1 7 C-1.33 6.34 -1.66 5.68 -2 5 C-2.61875 5.495 -3.2375 5.99 -3.875 6.5 C-6 8 -6 8 -8 8 C-8 7.34 -8 6.68 -8 6 C-6.25 4.4921875 -6.25 4.4921875 -4 2.875 C-3.2575 2.33617188 -2.515 1.79734375 -1.75 1.2421875 C-1.1725 0.83226563 -0.595 0.42234375 0 0 Z " fill="#6E6E6E" transform="translate(159,74)"/>
<path d="M0 0 C0 0.66 0 1.32 0 2 C-3.21182149 3.90608098 -5.53882603 4.22266247 -9.25 4.125 C-10.14203125 4.10695313 -11.0340625 4.08890625 -11.953125 4.0703125 C-12.96632812 4.03550781 -12.96632812 4.03550781 -14 4 C-9.52281208 1.01520806 -5.36175907 0 0 0 Z " fill="#727071" transform="translate(219,44)"/>
<path d="M0 0 C0.99 0 1.98 0 3 0 C2.67 1.32 2.34 2.64 2 4 C1.34 4 0.68 4 0 4 C-0.66 5.65 -1.32 7.3 -2 9 C-2.66 7.68 -3.32 6.36 -4 5 C-3.01 4.67 -2.02 4.34 -1 4 C-0.26676204 1.98491642 -0.26676204 1.98491642 0 0 Z " fill="#666666" transform="translate(412,310)"/>
<path d="M0 0 C0.33 0.66 0.66 1.32 1 2 C0.06553465 4.03144641 -0.93224776 6.03533587 -2 8 C-3.65 8 -5.3 8 -7 8 C-6.02133662 6.85373678 -5.04205413 5.70800212 -4.0625 4.5625 C-3.51722656 3.92441406 -2.97195313 3.28632813 -2.41015625 2.62890625 C-1.63204305 1.73008851 -0.84063472 0.84063472 0 0 Z " fill="#565152" transform="translate(405,286)"/>
<path d="M0 0 C1.31878578 0.76002917 2.6298684 1.53343653 3.9375 2.3125 C4.66839844 2.74175781 5.39929688 3.17101562 6.15234375 3.61328125 C8 5 8 5 9 8 C4.04303419 6.76075855 1.88341534 5.21422242 -1 1 C-0.67 0.67 -0.34 0.34 0 0 Z " fill="#555354" transform="translate(246,289)"/>
<path d="M0 0 C0.99 0.66 1.98 1.32 3 2 C1.35 4.64 -0.3 7.28 -2 10 C-2.66 8.68 -3.32 7.36 -4 6 C-3.525625 5.566875 -3.05125 5.13375 -2.5625 4.6875 C-0.76313043 2.97690387 -0.76313043 2.97690387 0 0 Z " fill="#706F6F" transform="translate(159,141)"/>
<path d="M0 0 C1.32 1.32 2.64 2.64 4 4 C3.67 4.66 3.34 5.32 3 6 C-0.63 5.67 -4.26 5.34 -8 5 C-8 4.67 -8 4.34 -8 4 C-5.36 4 -2.72 4 0 4 C0 2.68 0 1.36 0 0 Z " fill="#7F7D7D" transform="translate(401,95)"/>
<path d="M0 0 C3.82097239 0.53069061 6.06171403 1.49701566 9 4 C8.67 4.99 8.34 5.98 8 7 C6.66382648 6.02471263 5.3311249 5.04466681 4 4.0625 C3.2575 3.51722656 2.515 2.97195313 1.75 2.41015625 C1.1725 1.94480469 0.595 1.47945313 0 1 C0 0.67 0 0.34 0 0 Z " fill="#626061" transform="translate(162,350)"/>
<path d="M0 0 C0 0.66 0 1.32 0 2 C-4.455 3.485 -4.455 3.485 -9 5 C-9 4.01 -9 3.02 -9 2 C-5.5647952 -0.29013653 -4.014669 -0.17842973 0 0 Z " fill="#5A5859" transform="translate(171,273)"/>
<path d="M0 0 C0 0.66 0 1.32 0 2 C-4.29 1.67 -8.58 1.34 -13 1 C-13 0.67 -13 0.34 -13 0 C-8.37078475 -1.0161692 -4.65537393 -0.83796731 0 0 Z " fill="#6F6D6D" transform="translate(197,273)"/>
<path d="M0 0 C0.99773437 0.02320313 1.99546875 0.04640625 3.0234375 0.0703125 C4.52777344 0.09738281 4.52777344 0.09738281 6.0625 0.125 C6.83335937 0.14820313 7.60421875 0.17140625 8.3984375 0.1953125 C8.3984375 0.5253125 8.3984375 0.8553125 8.3984375 1.1953125 C6.98465968 1.56084053 5.56723174 1.91226745 4.1484375 2.2578125 C3.35953125 2.45503906 2.570625 2.65226562 1.7578125 2.85546875 C-0.70551072 3.21028517 -2.25760382 2.96408794 -4.6015625 2.1953125 C-2.6015625 0.1953125 -2.6015625 0.1953125 0 0 Z " fill="#6C696A" transform="translate(302.6015625,381.8046875)"/>
<path d="M0 0 C0.66 0.33 1.32 0.66 2 1 C1 3 0 5 -1 7 C-1.99 6.67 -2.98 6.34 -4 6 C-4.99 6.495 -4.99 6.495 -6 7 C-4.60667426 3.63279613 -3.0210714 2.0140476 0 0 Z " fill="#2B2728" transform="translate(393,296)"/>
<path d="M0 0 C0.66 0.33 1.32 0.66 2 1 C1.505 1.433125 1.01 1.86625 0.5 2.3125 C-1.33218192 3.99740483 -1.33218192 3.99740483 -1 7 C-1.66 7 -2.32 7 -3 7 C-3 6.01 -3 5.02 -3 4 C-4.98 4.33 -6.96 4.66 -9 5 C-6.32239719 2.32239719 -3.52050129 1.32018799 0 0 Z " fill="#777777" transform="translate(229,256)"/>
<path d="M0 0 C8.57142857 -0.28571429 8.57142857 -0.28571429 12 2 C7.48281619 3.36884358 4.41225737 2.47075246 0 1 C0 0.67 0 0.34 0 0 Z " fill="#5F5E5E" transform="translate(305,242)"/>
<path d="M0 0 C2.21736634 1.10868317 4.03617993 2.49440461 6 4 C4.58376784 4.05447047 3.16691809 4.09300508 1.75 4.125 C0.96109375 4.14820313 0.1721875 4.17140625 -0.640625 4.1953125 C-3.20731941 3.9828378 -4.7916067 3.28654105 -7 2 C-4.69 2 -2.38 2 0 2 C0 1.34 0 0.68 0 0 Z " fill="#2E2C2D" transform="translate(327,227)"/>
<path d="M0 0 C-0.125 1.875 -0.125 1.875 -1 4 C-4.0625 5.25 -4.0625 5.25 -7 6 C-6.67 5.01 -6.34 4.02 -6 3 C-5.34 3 -4.68 3 -4 3 C-4 2.34 -4 1.68 -4 1 C-2 0 -2 0 0 0 Z " fill="#5A595A" transform="translate(249,181)"/>
<path d="M0 0 C1.32 0.66 2.64 1.32 4 2 C4 2.99 4 3.98 4 5 C1.03 4.67 -1.94 4.34 -5 4 C-3.68 3.67 -2.36 3.34 -1 3 C-0.67 2.01 -0.34 1.02 0 0 Z " fill="#696667" transform="translate(303,81)"/>
<path d="M0 0 C3.63 0.33 7.26 0.66 11 1 C6.8204355 3.78637633 4.85331323 2.79562512 0 2 C0 1.34 0 0.68 0 0 Z " fill="#595051" transform="translate(234,382)"/>
<path d="M0 0 C1.32 0.99 2.64 1.98 4 3 C3.67 4.32 3.34 5.64 3 7 C2.34 7 1.68 7 1 7 C1 6.34 1 5.68 1 5 C0.34 5 -0.32 5 -1 5 C-0.67 3.35 -0.34 1.7 0 0 Z " fill="#393738" transform="translate(122,300)"/>
<path d="M0 0 C0.66 0.33 1.32 0.66 2 1 C1.34 4.3 0.68 7.6 0 11 C-2 7 -2 7 -2 3 C-1.34 3 -0.68 3 0 3 C0 2.01 0 1.02 0 0 Z " fill="#5A595A" transform="translate(437,258)"/>
<path d="M0 0 C4.455 0.99 4.455 0.99 9 2 C8.01 2.99 7.02 3.98 6 5 C4 4 2 3 0 2 C0 1.34 0 0.68 0 0 Z " fill="#595859" transform="translate(192,258)"/>
<path d="M0 0 C0.66 0 1.32 0 2 0 C2 0.99 2 1.98 2 3 C1.34 3 0.68 3 0 3 C-0.33 3.99 -0.66 4.98 -1 6 C-3.0625 6.6875 -3.0625 6.6875 -5 7 C-1.125 1.125 -1.125 1.125 0 0 Z " fill="#676566" transform="translate(209,158)"/>
<path d="M0 0 C3.465 1.98 3.465 1.98 7 4 C4.53721199 5.231394 2.7204945 5.07159196 0 5 C-0.5625 3.0625 -0.5625 3.0625 -1 1 C-0.67 0.67 -0.34 0.34 0 0 Z " fill="#6C6C6C" transform="translate(269,322)"/>
<path d="M0 0 C0.99 0.33 1.98 0.66 3 1 C2.01 1.495 2.01 1.495 1 2 C1 2.66 1 3.32 1 4 C0.01 4 -0.98 4 -2 4 C-2.33 4.66 -2.66 5.32 -3 6 C-3 5.34 -3 4.68 -3 4 C-3.66 3.67 -4.32 3.34 -5 3 C-2.6875 1.4375 -2.6875 1.4375 0 0 Z " fill="#CDC7C8" transform="translate(442,277)"/>
<path d="M0 0 C0.99 0.33 1.98 0.66 3 1 C4.03039555 5.53374042 4.17766075 6.64467851 2 11 C1.34 7.37 0.68 3.74 0 0 Z " fill="#686667" transform="translate(154,228)"/>
<path d="M0 0 C0.33 0.99 0.66 1.98 1 3 C0.34 3.66 -0.32 4.32 -1 5 C-2.32 5 -3.64 5 -5 5 C-5 4.01 -5 3.02 -5 2 C-3.35 1.34 -1.7 0.68 0 0 Z " fill="#616060" transform="translate(302,221)"/>
<path d="M0 0 C0.33 0.66 0.66 1.32 1 2 C1.66 2 2.32 2 3 2 C3.33 2.99 3.66 3.98 4 5 C3.01 5.495 3.01 5.495 2 6 C2 5.34 2 4.68 2 4 C0.35 4 -1.3 4 -3 4 C-2.01 2.68 -1.02 1.36 0 0 Z " fill="#585657" transform="translate(187,191)"/>
<path d="M0 0 C0.66 0 1.32 0 2 0 C0.515 5.445 0.515 5.445 -1 11 C-1.66 10.01 -2.32 9.02 -3 8 C-2.1875 5.5 -2.1875 5.5 -1 3 C-0.67 2.01 -0.34 1.02 0 0 Z " fill="#605E5E" transform="translate(151,157)"/>
<path d="M0 0 C3.00617269 3.00617269 2.59585316 5.82381598 3 10 C2.34 10 1.68 10 1 10 C-0.1577506 6.52674819 -0.06866652 3.63932552 0 0 Z " fill="#555253" transform="translate(321,98)"/>
<path d="M0 0 C2.3431213 0.25561323 4.67843403 0.59270772 7 1 C7.33 1.66 7.66 2.32 8 3 C7.34 3 6.68 3 6 3 C5.67 3.66 5.34 4.32 5 5 C1.125 2.25 1.125 2.25 0 0 Z " fill="#A29F9F" transform="translate(444,268)"/>
<path d="M0 0 C0.33 0 0.66 0 1 0 C2.125 5.625 2.125 5.625 1 9 C0.34 9 -0.32 9 -1 9 C-1.80967438 6.08517222 -2.21845993 4.53886783 -1.0625 1.6875 C-0.711875 1.130625 -0.36125 0.57375 0 0 Z " fill="#5F5D5E" transform="translate(109,139)"/>
<path d="M0 0 C-2.91765 1.9451 -4.62537285 2.45276317 -8 3 C-8 2.01 -8 1.02 -8 0 C-4.71023192 -1.09658936 -3.28696233 -0.79953138 0 0 Z " fill="#6C6A6A" transform="translate(336,374)"/>
<path d="M0 0 C1.08667969 0.29197266 1.08667969 0.29197266 2.1953125 0.58984375 C2.74960938 0.74582031 3.30390625 0.90179688 3.875 1.0625 C3.875 1.3925 3.875 1.7225 3.875 2.0625 C-2.75 2.3125 -2.75 2.3125 -6.125 0.0625 C-3.57797384 -1.21101308 -2.6967055 -0.73941925 0 0 Z " fill="#514E4F" transform="translate(210.125,275.9375)"/>
<path d="M0 0 C2.76223278 2.76223278 2.57856291 5.20706617 3 9 C2.34 9 1.68 9 1 9 C0.67 6.03 0.34 3.06 0 0 Z " fill="#626161" transform="translate(434,150)"/>
<path d="M0 0 C1.65 0.33 3.3 0.66 5 1 C2.6875 3.0625 2.6875 3.0625 0 5 C-0.99 4.67 -1.98 4.34 -3 4 C-2.67 3.34 -2.34 2.68 -2 2 C-1.34 2 -0.68 2 0 2 C0 1.34 0 0.68 0 0 Z " fill="#6B6969" transform="translate(236,97)"/>
<path d="M0 0 C2 1 2 1 3 3 C2.34 3 1.68 3 1 3 C0.67 3.99 0.34 4.98 0 6 C-1.32 5.01 -2.64 4.02 -4 3 C-2.68 2.01 -1.36 1.02 0 0 Z " fill="#6E6C6D" transform="translate(182,58)"/>
</svg>
